<svg width="12" height="20" viewBox="0 0 12 20" fill="none" xmlns="http://www.w3.org/2000/svg">
<path d="M10.8779 17.7745C11.3868 18.2831 11.3871 19.1092 10.8779 19.6183C10.3693 20.1273 9.54352 20.1272 9.03417 19.6183C9.03117 19.6153 9.02893 19.6123 9.02623 19.6091L9.02249 19.6124L0.386995 10.9769L0.39059 10.9736C0.149467 10.7372 3.56061e-07 10.4083 3.56061e-07 10.0439C-0.000299175 9.63503 0.188406 9.2702 0.483594 9.03117L0.474608 9.02249L9.1101 0.386995L9.11384 0.390589C9.11654 0.387444 9.11879 0.384748 9.12178 0.381903C9.63099 -0.127301 10.4565 -0.127301 10.9657 0.381903C11.4746 0.890507 11.4746 1.71602 10.9657 2.22567C10.9626 2.22866 10.9596 2.23076 10.9566 2.23376L10.96 2.23735L3.15437 10.0439L10.8733 17.7628L10.8695 17.766C10.8718 17.7693 10.8749 17.7714 10.8779 17.7745Z" fill="white"/>
</svg>
