<svg width="15" height="12" viewBox="0 0 15 12" fill="none" xmlns="http://www.w3.org/2000/svg">
<path d="M1.5 2.66668C1.5 2.31305 1.64048 1.97392 1.89052 1.72387C2.14057 1.47382 2.47971 1.33334 2.83333 1.33334H12.1667C12.5203 1.33334 12.8594 1.47382 13.1095 1.72387C13.3595 1.97392 13.5 2.31305 13.5 2.66668M1.5 2.66668V9.33334C1.5 9.68697 1.64048 10.0261 1.89052 10.2762C2.14057 10.5262 2.47971 10.6667 2.83333 10.6667H12.1667C12.5203 10.6667 12.8594 10.5262 13.1095 10.2762C13.3595 10.0261 13.5 9.68697 13.5 9.33334V2.66668M1.5 2.66668L7.5 6.66668L13.5 2.66668" stroke="black" stroke-width="1.3" stroke-linecap="round" stroke-linejoin="round"/>
</svg>
