<svg width="25" height="24" viewBox="0 0 25 24" fill="none" xmlns="http://www.w3.org/2000/svg">
<g clip-path="url(#clip0_1903_2181)">
<path d="M12.5 21.75C10.5716 21.75 8.68657 21.1782 7.08319 20.1068C5.47982 19.0355 4.23013 17.5127 3.49218 15.7312C2.75422 13.9496 2.56114 11.9892 2.93735 10.0979C3.31355 8.20656 4.24215 6.46928 5.60571 5.10571C6.96928 3.74215 8.70656 2.81355 10.5979 2.43735C12.4892 2.06114 14.4496 2.25422 16.2312 2.99218C18.0127 3.73013 19.5355 4.97982 20.6068 6.58319C21.6782 8.18657 22.25 10.0716 22.25 12C22.25 14.5859 21.2228 17.0658 19.3943 18.8943C17.5658 20.7228 15.0859 21.75 12.5 21.75ZM12.5 3.75C10.8683 3.75 9.27326 4.23386 7.91655 5.14038C6.55984 6.0469 5.50242 7.33538 4.878 8.84287C4.25358 10.3504 4.0902 12.0092 4.40853 13.6095C4.72685 15.2098 5.51259 16.6799 6.66637 17.8336C7.82016 18.9874 9.29017 19.7732 10.8905 20.0915C12.4909 20.4098 14.1497 20.2464 15.6571 19.622C17.1646 18.9976 18.4531 17.9402 19.3596 16.5835C20.2661 15.2268 20.75 13.6317 20.75 12C20.75 9.81197 19.8808 7.71355 18.3336 6.16637C16.7865 4.6192 14.688 3.75 12.5 3.75Z" fill="white"/>
<path d="M9.31993 15.9301C9.22123 15.9306 9.12338 15.9117 9.032 15.8744C8.94062 15.8371 8.85751 15.7821 8.78743 15.7126C8.64774 15.572 8.56934 15.382 8.56934 15.1838C8.56934 14.9857 8.64774 14.7956 8.78743 14.6551L15.1549 8.28756C15.2244 8.21567 15.3073 8.15815 15.399 8.11829C15.4906 8.07844 15.5892 8.05703 15.6892 8.05529C15.7891 8.05355 15.8884 8.07151 15.9814 8.10815C16.0744 8.14478 16.1593 8.19938 16.2312 8.26881C16.3031 8.33825 16.3606 8.42117 16.4004 8.51283C16.4403 8.6045 16.4617 8.70312 16.4635 8.80306C16.4652 8.903 16.4472 9.0023 16.4106 9.0953C16.374 9.18829 16.3194 9.27317 16.2499 9.34506L9.84493 15.7501C9.69939 15.875 9.51151 15.9394 9.31993 15.9301Z" fill="white"/>
<path d="M15.68 15.9298C15.4833 15.9289 15.2947 15.8508 15.155 15.7123L8.78752 9.34478C8.66465 9.2013 8.60045 9.01674 8.60774 8.82799C8.61503 8.63923 8.69328 8.46018 8.82685 8.3266C8.96042 8.19303 9.13947 8.11478 9.32823 8.10749C9.51699 8.1002 9.70154 8.16441 9.84502 8.28728L16.25 14.6548C16.325 14.7249 16.3847 14.8097 16.4255 14.9039C16.4664 14.9981 16.4874 15.0996 16.4874 15.2023C16.4874 15.3049 16.4664 15.4065 16.4255 15.5007C16.3847 15.5948 16.325 15.6796 16.25 15.7498C16.1724 15.8173 16.0818 15.8681 15.9837 15.899C15.8857 15.93 15.7823 15.9405 15.68 15.9298Z" fill="white"/>
</g>
<defs>
<clipPath id="clip0_1903_2181">
<rect width="24" height="24" fill="white" transform="translate(0.5)"/>
</clipPath>
</defs>
</svg>
