<svg width="24" height="24" viewBox="0 0 24 24" fill="none" xmlns="http://www.w3.org/2000/svg">
<path fill-rule="evenodd" clip-rule="evenodd" d="M8 18C6.9 18 6 18.9 6 20C6 21.1 6.9 22 8 22C9.1 22 10 21.1 10 20C10 18.9 9.1 18 8 18ZM2 2V4H4L7.6 11.6L6.2 14C6.1 14.3 6 14.7 6 15C6 16.1 6.9 17 8 17H20V15H8.4C8.3 15 8.2 14.9 8.2 14.8V14.7L9.1 13H16.5C17.3 13 17.9 12.6 18.2 12L21.8 5.5C22 5.3 22 5.2 22 5C22 4.4 21.6 4 21 4H6.2L5.3 2H2ZM18 18C16.9 18 16 18.9 16 20C16 21.1 16.9 22 18 22C19.1 22 20 21.1 20 20C20 18.9 19.1 18 18 18Z" fill="white"/>
</svg>
